<?xml version="1.0" encoding="UTF-8"?>
<svg version="1.1" xmlns="http://www.w3.org/2000/svg" width="1024" height="1024">
<path d="M0 0 C337.92 0 675.84 0 1024 0 C1024 337.92 1024 675.84 1024 1024 C686.08 1024 348.16 1024 0 1024 C0 686.08 0 348.16 0 0 Z " fill="#F2EDE3" transform="translate(0,0)"/>
<path d="M0 0 C33.99 0 67.98 0 103 0 C112.18269904 18.36539809 112.18269904 18.36539809 115.05078125 24.8359375 C115.38726685 25.5868013 115.72375244 26.3376651 116.07043457 27.11128235 C117.15419183 29.53116237 118.2333073 31.95308142 119.3125 34.375 C120.48949161 37.0055168 121.66777682 39.63545181 122.84611511 42.2653656 C123.66015099 44.08238208 124.47379758 45.89957301 125.2870636 47.7169342 C129.36480493 56.82643598 133.48012638 65.91879377 137.59924316 75.00964355 C143.79010075 88.67387968 149.96195858 102.34619366 156.09033203 116.03857422 C161.37497462 127.84497253 166.68321392 139.64070852 171.99414062 151.43530273 C172.76954092 153.15738497 173.54493151 154.87947157 174.3203125 156.6015625 C174.70701111 157.46038528 175.09370972 158.31920807 175.49212646 159.20405579 C178.18391323 165.18360578 180.87032589 171.16555116 183.5546875 177.1484375 C185.05683388 180.49499737 186.55948784 183.84132889 188.0625 187.1875 C188.43324646 188.01301361 188.80399292 188.83852722 189.18597412 189.6890564 C195.00940281 202.64867962 200.93205953 215.5603842 206.89044189 228.45840454 C211.54417058 238.54157192 216.06669027 248.66586478 220.4375 258.875 C227.20311683 274.67213252 234.44687135 290.24049376 241.68002319 305.82774353 C245.30236682 313.63946513 248.87924162 321.4714122 252.4375 329.3125 C252.73493103 329.96771637 253.03236206 330.62293274 253.33880615 331.29800415 C259.55509359 344.99563556 265.7483873 358.70371116 271.94628906 372.40966797 C276.85148589 383.25616398 281.7621958 394.10011836 286.6875 404.9375 C286.98850616 405.5999472 287.28951233 406.26239441 287.59963989 406.94491577 C291.02758215 414.48739997 294.46692231 422.02453608 297.921875 429.5546875 C299.26075546 432.47380309 300.59930885 435.39306835 301.9375 438.3125 C302.26821503 439.03395203 302.59893005 439.75540405 302.93966675 440.49871826 C308.12453147 451.81767119 313.21053263 463.17814744 318.25 474.5625 C323.69302456 486.85758503 329.2312096 499.10128147 334.89453125 511.296875 C338.52629036 519.11985172 342.10616596 526.96635312 345.6875 534.8125 C349.89426945 544.02767211 354.10626933 553.24030762 358.34375 562.44140625 C365.44865721 577.87049605 372.53011187 593.30673802 379.4387207 608.82495117 C382.00818513 614.58994867 384.60992165 620.33607781 387.28125 626.0546875 C387.80219238 627.17319092 388.32313477 628.29169434 388.85986328 629.4440918 C389.84620642 631.55552727 390.83904516 633.66394448 391.83935547 635.76879883 C392.27135254 636.6945874 392.70334961 637.62037598 393.1484375 638.57421875 C393.53177246 639.38463623 393.91510742 640.19505371 394.31005859 641.0300293 C394.53773926 641.68011963 394.76541992 642.33020996 395 643 C394.67 643.66 394.34 644.32 394 645 C360.67 645 327.34 645 293 645 C284.585 626.685 284.585 626.685 276 608 C269.28833895 593.43426752 262.55663161 578.87799379 255.81411743 564.32653809 C254.56283586 561.62572494 253.31203843 558.92468794 252.0612793 556.22363281 C248.56291556 548.67099009 245.06220498 541.11974848 241.5234375 533.5859375 C234.31914611 518.22762168 227.44675713 502.73959427 220.65429688 487.19580078 C216.29990027 477.23166123 211.9087726 467.28727861 207.4375 457.375 C201.96688026 445.2357828 196.63753744 433.03777074 191.32983398 420.82666016 C186.90900395 410.65610504 182.45977704 400.50096815 177.9375 390.375 C170.50640447 373.63547955 163.2693573 356.81038876 156 340 C86.7 339.67 17.4 339.34 -54 339 C-54.99 342.3 -55.98 345.6 -57 349 C-57.9310229 351.34446329 -58.90942294 353.67084778 -59.94140625 355.97265625 C-60.22102203 356.60138641 -60.50063782 357.23011658 -60.78872681 357.87789917 C-61.70792179 359.94188946 -62.63528153 362.0021034 -63.5625 364.0625 C-64.22311608 365.54273615 -64.88300978 367.02329488 -65.54223633 368.50415039 C-66.58967743 370.85697997 -67.63752632 373.20961759 -68.68748474 375.56132507 C-72.5084124 384.12214988 -76.26954583 392.70897851 -80.03045654 401.29629517 C-85.76075003 414.37694375 -91.51270151 427.44739796 -97.32641602 440.49121094 C-100.33971343 447.25494468 -103.33740189 454.02531778 -106.32421875 460.80078125 C-114.94901892 480.36242374 -123.62514471 499.8985213 -132.42016602 519.38427734 C-137.16475587 529.8995966 -141.86250269 540.4346535 -146.53164673 550.9836731 C-151.06740898 561.23052922 -155.61546761 571.45900838 -160.49047852 581.55029297 C-165.20962991 591.40040067 -169.56152185 601.42209006 -173.97851562 611.41015625 C-178.93975306 622.62858746 -183.96589171 633.81309269 -189 645 C-222.66 645 -256.32 645 -291 645 C-289.53790888 639.88268109 -288.14742538 635.89275156 -285.8828125 631.1953125 C-285.25167392 629.8707148 -284.62184683 628.54549161 -283.99316406 627.21972656 C-283.50184998 626.18555603 -283.50184998 626.18555603 -283.00061035 625.13049316 C-281.30574461 621.52179586 -279.67974782 617.88273249 -278.0546875 614.2421875 C-277.71860474 613.4900296 -277.38252197 612.7378717 -277.03625488 611.96292114 C-276.34048752 610.40449987 -275.6451822 608.84587224 -274.95031738 607.28704834 C-273.84286563 604.80291929 -272.73365678 602.31958105 -271.62402344 599.83642578 C-268.79988751 593.51577309 -265.97793274 587.19414891 -263.15917969 580.87109375 C-256.39534938 565.69969097 -249.51818654 550.58847451 -242.50390625 535.53125 C-238.54416544 527.03049042 -234.60862653 518.51863717 -230.6875 510 C-230.32953339 509.22236298 -229.97156677 508.44472595 -229.60275269 507.64352417 C-223.9008547 495.24484454 -218.32924244 482.79187416 -212.81698608 470.30789185 C-207.88995939 459.15461479 -202.80947759 448.08409792 -197.6126709 437.05419922 C-193.80130364 428.95844729 -190.10259256 420.84056967 -186.74609375 412.54467773 C-184.34786803 406.64879697 -181.64811612 400.90138876 -178.94262695 395.14233398 C-175.52378764 387.864461 -172.17149153 380.5556336 -168.8125 373.25 C-168.25600266 372.03996307 -168.25600266 372.03996307 -167.68826294 370.80548096 C-162.54795731 359.62198607 -157.48534649 348.40904183 -152.51318359 337.1496582 C-148.55878121 328.21265559 -144.50997518 319.32110013 -140.4375 310.4375 C-133.57919615 295.47604607 -126.7806325 280.48829022 -120.00439453 265.48950195 C-116.35395315 257.41035273 -112.70123331 249.33236632 -109.0234375 241.265625 C-108.71147934 240.5812738 -108.39952118 239.89692261 -108.07810974 239.1918335 C-107.46022777 237.83642471 -106.84234348 236.48101698 -106.22445679 235.12561035 C-105.92351105 234.46540894 -105.62256531 233.80520752 -105.3125 233.125 C-105.01372955 232.46963257 -104.71495911 231.81426514 -104.40713501 231.13903809 C-99.05503464 219.39147022 -93.81644195 207.59498499 -88.5916748 195.79034424 C-84.50679057 186.5666727 -80.36515399 177.38242723 -76.00048828 168.28686523 C-71.83269964 159.59984734 -67.92585838 150.79838696 -64 142 C-61.37643494 136.12435874 -58.7510132 130.24954744 -56.125 124.375 C-55.76381073 123.56684845 -55.40262146 122.7586969 -55.03048706 121.92605591 C-48.45581326 107.2185821 -41.82568547 92.53661929 -35.1784668 77.86181641 C-28.86625129 63.92515294 -22.58176948 49.97616192 -16.31274414 36.02001953 C-10.90915882 23.99744116 -5.45453832 11.9999843 0 0 Z " fill="#141513" transform="translate(461,179)"/>
<path d="M0 0 C8.29269378 -0.09263761 16.58517177 -0.16373258 24.87825489 -0.20724869 C28.72899957 -0.22813325 32.57939055 -0.25646573 36.42993164 -0.30175781 C40.14522978 -0.34518613 43.86018749 -0.36913056 47.57571983 -0.37950897 C48.99395801 -0.38690591 50.41217733 -0.40135052 51.83027077 -0.42292023 C53.81480397 -0.45190802 55.79967898 -0.4536335 57.78442383 -0.45410156 C58.91471512 -0.46298401 60.04500641 -0.47186646 61.20954895 -0.48101807 C64 0 64 0 65.80747986 1.86061096 C67.25098146 4.45026241 68.45496384 7.0607908 69.609375 9.79296875 C70.10864502 10.9629541 70.60791504 12.13293945 71.12231445 13.33837891 C71.38646149 13.96335266 71.65060852 14.58832642 71.92276001 15.23223877 C73.36061408 18.63074507 74.81856178 22.02059089 76.27734375 25.41015625 C76.58202072 26.11847595 76.88669769 26.82679565 77.2006073 27.55657959 C80.46784638 35.12664749 83.88131761 42.62815702 87.3125 50.125 C92.27815146 60.97998759 97.17028918 71.86371746 101.99304199 82.78295898 C107.37499862 94.96657616 112.86598539 107.08513159 118.5625 119.125 C126.36105013 135.61088675 133.70583101 152.28602897 141 169 C147.09711249 182.96874256 153.284256 196.89028038 159.625 210.75 C160.12425995 211.84146835 160.12425995 211.84146835 160.63360596 212.95498657 C164.24298966 220.84147801 167.86743015 228.72085785 171.51403809 236.59020996 C173.07236546 239.95387943 174.62747333 243.31903364 176.18255615 246.6842041 C177.2862021 249.06819381 178.39519439 251.44964537 179.50439453 253.83105469 C180.18678329 255.30652047 180.86892469 256.78210069 181.55078125 258.2578125 C181.85634445 258.90954437 182.16190765 259.56127625 182.47673035 260.23275757 C184.72459931 265.11939518 186.27168133 269.81504398 188 275 C166.22 275 144.44 275 122 275 C109.21688471 245.94746525 109.21688471 245.94746525 104.78076172 234.93652344 C103.97475287 232.93737953 103.16148684 230.94128358 102.34765625 228.9453125 C99.67138404 222.34239831 97.25823818 215.77471455 95 209 C53.75 209 12.5 209 -30 209 C-30.99 212.3 -31.98 215.6 -33 219 C-34.06209602 221.82470265 -35.14472515 224.61441287 -36.29296875 227.40234375 C-36.60269119 228.16438614 -36.91241364 228.92642853 -37.23152161 229.71156311 C-38.21258963 232.12197081 -39.20003094 234.52970871 -40.1875 236.9375 C-40.82916996 238.51351155 -41.47044816 240.08968266 -42.11132812 241.66601562 C-42.75485499 243.24493573 -43.39872536 244.82371588 -44.04296875 246.40234375 C-44.32037399 247.08223862 -44.59777924 247.76213348 -44.8835907 248.46263123 C-48.52347242 257.33637937 -52.27769684 266.15952999 -56 275 C-78.44 275 -100.88 275 -124 275 C-122.46273867 270.38821601 -120.76471616 266.09265923 -118.7265625 261.70703125 C-118.40706635 261.01252869 -118.08757019 260.31802612 -117.75839233 259.60247803 C-117.07310506 258.11323687 -116.38651268 256.62459569 -115.69873047 255.13650513 C-113.86729915 251.17251612 -112.04712858 247.20336312 -110.2265625 243.234375 C-109.67914398 242.04159691 -109.67914398 242.04159691 -109.1206665 240.82472229 C-106.03374145 234.09108579 -102.99985048 227.3354446 -100 220.5625 C-99.53158691 219.50530762 -99.06317383 218.44811523 -98.58056641 217.35888672 C-97.33144604 214.5367379 -96.08342716 211.71410528 -94.8359375 208.89123535 C-84.14434339 184.70244044 -73.39918602 160.55050626 -62.04296875 136.6640625 C-53.12137757 117.89048527 -44.48543892 99.01981116 -36.0980072 80.00184631 C-32.08835762 70.9190578 -28.01466392 61.86513626 -23.9375 52.8125 C-23.56394379 51.98278687 -23.19038757 51.15307373 -22.80551147 50.29821777 C-15.24658115 33.51262341 -7.63042762 16.75318318 0 0 Z " fill="#141513" transform="translate(480,549)"/>
<path d="M0 0 C1.9441228 2.91618421 3.23308244 5.65734894 4.6171875 8.87109375 C5.13458496 10.06863281 5.65198242 11.26617187 6.18505859 12.5 C6.74846827 13.81245885 7.31177908 15.12496014 7.875 16.4375 C8.46804355 17.8138961 9.0613089 19.19019667 9.65478516 20.56640625 C11.16272345 24.06539092 12.66695608 27.56595463 14.16992188 31.06707764 C15.35111484 33.81760706 16.53514407 36.56691447 17.71875 39.31640625 C25.74241877 57.98122565 33.68431659 76.68119593 41.64013672 95.375 C53.90588774 124.24666069 53.90588774 124.24666069 66.52929688 152.96289062 C67.21282227 154.50299805 67.21282227 154.50299805 67.91015625 156.07421875 C68.51549194 157.42906372 68.51549194 157.42906372 69.13305664 158.8112793 C70 161 70 161 70 163 C23.14 163 -23.72 163 -72 163 C-71.19330288 158.96651438 -70.35478956 156.2318955 -68.69140625 152.57421875 C-68.20115967 151.48874756 -67.71091309 150.40327637 -67.20581055 149.28491211 C-66.66351807 148.09776611 -66.12122559 146.91062012 -65.5625 145.6875 C-64.98488373 144.41243941 -64.40783289 143.13712255 -63.83129883 141.86157227 C-62.57059747 139.07393725 -61.30719451 136.28754812 -60.04199219 133.50195312 C-56.78800257 126.3335048 -53.55955865 119.15352917 -50.3291626 111.97442627 C-49.17936911 109.41943209 -48.02890227 106.86474177 -46.87841797 104.31005859 C-41.11306132 91.50256025 -35.39611982 78.67400618 -29.70141602 65.83496094 C-25.01083858 55.26144127 -20.28160899 44.70579913 -15.53686523 34.15649414 C-11.60694653 25.40035949 -7.76050507 16.60993805 -3.98095703 7.7878418 C-3.41030518 6.46200073 -3.41030518 6.46200073 -2.828125 5.109375 C-2.3316748 3.94873535 -2.3316748 3.94873535 -1.82519531 2.76464844 C-1 1 -1 1 0 0 Z " fill="#F1EDE3" transform="translate(513,279)"/>
<path d="M0 0 C2.45648756 3.02388521 4.01451717 6.00305746 5.5390625 9.58203125 C6.27370728 11.29326172 6.27370728 11.29326172 7.02319336 13.0390625 C7.55713065 14.29687426 8.09106614 15.55468678 8.625 16.8125 C9.48122287 18.81245496 10.33944278 20.81154614 11.19767761 22.81063843 C11.8111045 24.23991597 12.42389124 25.6694684 13.03608704 27.09927368 C16.95745909 36.25274522 20.95115139 45.37469342 24.9375 54.5 C32.68469492 72.23883301 32.68469492 72.23883301 36.50390625 81.09375 C36.98802979 82.21458984 37.47215332 83.33542969 37.97094727 84.49023438 C39 87 39 87 39 88 C13.59 88 -11.82 88 -38 88 C-32.37476826 73.37439748 -32.37476826 73.37439748 -29.79296875 67.55859375 C-29.51026123 66.91944031 -29.22755371 66.28028687 -28.9362793 65.62176514 C-28.02299986 63.5590069 -27.10529881 61.4982508 -26.1875 59.4375 C-25.5385406 57.97383732 -24.88986525 56.51004866 -24.24145508 55.04614258 C-22.16542178 50.36211199 -20.08302743 45.68092347 -18 41 C-17.25777933 39.33139496 -16.51559221 37.662775 -15.7734375 35.99414062 C-15.4029277 35.16115952 -15.03241791 34.32817841 -14.65068054 33.46995544 C-13.9087673 31.80190212 -13.16691476 30.13382179 -12.42512512 28.4657135 C-10.65327341 24.48147561 -8.88023739 20.49777628 -7.10424805 16.51538086 C-6.45881155 15.06624797 -5.81338462 13.61711082 -5.16796875 12.16796875 C-4.72988892 11.18736481 -4.72988892 11.18736481 -4.28295898 10.18695068 C-2.78337027 6.81742365 -1.34261251 3.43520797 0 0 Z " fill="#F2EDE4" transform="translate(512,614)"/>
<path d="M0 0 C0 0.66 0 1.32 0 2 C-46.86 2 -93.72 2 -142 2 C-142 1.34 -142 0.68 -142 0 C-123.78085476 -0.15380592 -105.56167228 -0.30184177 -87.34242439 -0.4429636 C-78.88336872 -0.50862067 -70.4243362 -0.57618284 -61.96533203 -0.64819336 C-54.59451192 -0.7109355 -47.22367345 -0.77014046 -39.85279071 -0.82505554 C-35.94812957 -0.85427099 -32.04350105 -0.88528632 -28.13888931 -0.92053413 C-24.46675584 -0.95362751 -20.79461667 -0.98200563 -17.12241745 -1.00670624 C-15.12605793 -1.02137979 -13.1297376 -1.04110783 -11.13342285 -1.06095886 C-9.95269196 -1.06799835 -8.77196106 -1.07503784 -7.55545044 -1.08229065 C-6.52488588 -1.09058679 -5.49432133 -1.09888292 -4.43252754 -1.10743046 C-2 -1 -2 -1 0 0 Z " fill="#DAD8D2" transform="translate(583,440)"/>
<path d="M0 0 C1.5625 1.75 1.5625 1.75 3 4 C2.6875 6.25 2.6875 6.25 2 8 C-0.64 8 -3.28 8 -6 8 C-6 7.67 -6 7.34 -6 7 C-4.02 6.67 -2.04 6.34 0 6 C0 4.02 0 2.04 0 0 Z " fill="#1E1E1C" transform="translate(664,815)"/>
<path d="M0 0 C0.33 0.66 0.66 1.32 1 2 C0.37943989 3.68437744 -0.29289322 5.35008418 -1 7 C-1.35858516 8.32676508 -1.7018576 9.65835921 -2 11 C-2.66 11 -3.32 11 -4 11 C-3.48964169 6.6109185 -2.47785723 3.66291938 0 0 Z " fill="#F4F3EE" transform="translate(311,737)"/>
</svg>
